<svg width="80" height="47" viewBox="0 0 80 47" fill="none" xmlns="http://www.w3.org/2000/svg">
<path d="M8.38856 24.6699L6.56087 20.9418C9.56535 19.3154 10.5166 21.2669 10.6921 22.6432C10.9675 23.8941 8.38856 24.6699 8.38856 24.6699ZM5.79058 19.35L4.08596 15.8732C6.88778 14.3567 7.77474 16.1767 7.93819 17.46C8.19521 18.6265 5.79058 19.35 5.79058 19.35ZM14.1723 20.5167C13.0751 17.9966 10.0398 18.4867 10.0398 18.4867C10.0398 18.4867 11.9537 17.0679 10.9035 14.5666C9.50265 11.23 5.55704 13.1667 5.55704 13.1667L0 15.8267L5.86027 28.1001L12.0474 25.0666C12.0474 25.0666 15.3396 23.4566 14.1723 20.5167Z" fill="#D64320"/>
<path d="M18.0619 16.6271L18.1807 12.224L20.8006 15.596L18.0619 16.6271ZM19.6892 8.33661L16.4345 9.5664L16.1567 23.1328L18.1015 22.3791L18.1807 18.4519L21.9518 17.1826L24.4923 20.3163L28.1834 18.7693L19.6892 8.33661Z" fill="#D64320"/>
<path d="M31.9146 16.6271L30.4063 7.26553C30.4063 7.26553 34.5741 6.07552 35.1297 11.9067C35.5663 17.0239 31.9146 16.6271 31.9146 16.6271ZM30.7238 5.44074L26.9926 6.07552L29.2553 18.7693L34.177 18.0552C34.177 18.0552 38.4299 17.1032 38.4638 13.2556C38.5036 8.77313 36.9557 4.76658 30.7238 5.44074Z" fill="#D64320"/>
<path d="M43.5844 11.2721L44.934 7.42422L46.3631 11.2721H43.5844ZM47.7127 3.8146H44.1798L39.6151 17.2223H41.6396L42.9098 13.5332H46.9981L48.3079 17.2223H52.3965L47.7127 3.8146Z" fill="#D64320"/>
<path d="M62.3596 25.9492C62.3596 27.3952 61.1865 28.5674 59.7397 28.5674C58.2931 28.5674 57.1202 27.3952 57.1202 25.9492C57.1202 24.5032 58.2931 23.3311 59.7397 23.3311C61.1865 23.3311 62.3596 24.5032 62.3596 25.9492Z" fill="#D64320"/>
<path d="M62.4388 20.0387L71.6081 1.91047C71.6081 1.91047 73.2355 -1.34238 76.9668 0.640912C80.8167 2.86224 80.5789 5.83747 78.5941 7.62249L64.8603 21.7046C64.8603 21.7046 64.1457 22.5772 62.9152 21.9028C61.8832 21.1493 62.4388 20.0387 62.4388 20.0387Z" fill="#D64320"/>
<path d="M17.4416 26.2329L20.4798 25.0944L25.6854 39.9391L22.6853 41.2293L17.4416 26.2329Z" fill="#D64320"/>
<path d="M30.0161 22.3611L37.31 32.1179L35.9424 21.0702L38.7914 20.7666L40.197 36.6738L36.0942 37.3951L28.4206 27.4864L30.358 38.7238L27.8126 39.1794L25.2294 23.3482L30.0161 22.3611Z" fill="#D64320"/>
<path d="M47.6427 27.8279L55.5444 26.9168V35.3829H54.6707C54.6707 35.3829 53.9867 34.7755 53.3411 35.0415C52.6954 35.3071 52.0111 36.408 47.9087 36.1042C43.806 35.8008 41.3746 31.0551 41.6025 27.2206C41.8306 23.386 44.5278 19.324 48.6685 19.0962C53.607 19.0203 54.6326 21.9434 54.6326 21.9434L52.3912 24.1455C52.3912 24.1455 51.9733 21.6017 48.7442 21.6017C45.2876 21.8675 45.6294 27.0686 45.6675 28.9669C45.6947 30.334 46.1611 33.7888 49.4283 33.9783C51.1378 34.1681 51.7456 32.8015 51.7456 32.8015V30.5996L47.6047 31.0549L47.6427 27.8279Z" fill="#D64320"/>
<path d="M12.426 43.0827L10.3974 38.8659C13.7319 37.0265 14.7877 39.2337 14.9824 40.79C15.2882 42.2052 12.426 43.0827 12.426 43.0827ZM9.2503 36.8517L7.42882 32.9841C10.423 31.2968 11.3711 33.3213 11.5458 34.7491C11.8205 36.0466 9.2503 36.8517 9.2503 36.8517ZM18.6576 38.2681C17.3954 35.1499 13.947 35.9903 13.947 35.9903C13.947 35.9903 15.8465 34.3956 14.8586 31.8521C13.225 27.8659 8.62852 29.8781 8.62852 29.8781L2.85425 32.9152L10.2621 47L16.5683 43.4693C16.5683 43.4693 20.0249 41.6471 18.6576 38.2681Z" fill="#D64320"/>
<path d="M66.8888 21.3744V21.6341H66.6883V22.6719H66.3507V21.6341H66.1511V21.3744H66.8888Z" fill="#D64320"/>
<path d="M68.0081 21.3744V22.6719H67.7132L67.7126 21.7957L67.5956 22.6719H67.3853L67.2611 21.8151L67.2607 22.6719H66.9658V21.3744H67.4034C67.4162 21.4522 67.4292 21.5439 67.4432 21.6499L67.4909 21.98L67.5684 21.3744H68.0081Z" fill="#D64320"/>
</svg>
