<svg width="136" height="40" viewBox="0 0 136 40" fill="none" xmlns="http://www.w3.org/2000/svg">
<g clip-path="url(#clip0_3510_38333)">
<path fill-rule="evenodd" clip-rule="evenodd" d="M130.666 40H5.66981C2.91308 40 0.667969 37.7456 0.667969 35V5C0.667969 2.24439 2.91308 0 5.66981 0H130.666C133.42 0 135.668 2.24439 135.668 5V35C135.668 37.7456 133.42 40 130.666 40Z" fill="black"/>
<path fill-rule="evenodd" clip-rule="evenodd" d="M130.666 0.800499C132.978 0.800499 134.871 2.68828 134.871 5V35C134.871 37.3117 132.991 39.1995 130.666 39.1995H5.66981C3.35764 39.1995 1.46518 37.3117 1.46518 35V5C1.46518 2.68828 3.34522 0.800499 5.66981 0.800499H130.666ZM130.666 0H5.66981C2.91308 0 0.667969 2.25436 0.667969 5V35C0.667969 37.7556 2.91308 40 5.66981 40H130.666C133.42 40 135.668 37.7556 135.668 35V5C135.668 2.25436 133.42 0 130.666 0Z" fill="#A6A6A6"/>
<path d="M71.7863 13.232C70.8847 13.232 70.1248 12.9153 69.5238 12.2918C68.9277 11.6858 68.5949 10.8504 68.6098 9.99755C68.6098 9.08732 68.9178 8.31675 69.5238 7.70577C70.1223 7.08233 70.8823 6.76562 71.7838 6.76562C72.6754 6.76562 73.4353 7.08233 74.0463 7.70577C74.6522 8.3367 74.9602 9.10727 74.9602 9.99755C74.9503 10.9103 74.6423 11.6808 74.0463 12.2893C73.4477 12.9177 72.6878 13.232 71.7863 13.232ZM44.9618 13.232C44.0801 13.232 43.3152 12.9202 42.6893 12.3043C42.0685 11.6908 41.7531 10.9153 41.7531 10C41.7531 9.08483 42.0685 8.30927 42.6893 7.6958C43.3028 7.07984 44.0677 6.76812 44.9618 6.76812C45.3989 6.76812 45.8235 6.8554 46.2308 7.03246C46.6307 7.20453 46.956 7.43894 47.1969 7.72572L47.2565 7.79804L46.5835 8.46139L46.514 8.37909C46.134 7.92523 45.6249 7.70328 44.9518 7.70328C44.3508 7.70328 43.8268 7.91774 43.3947 8.34169C42.96 8.76812 42.739 9.32672 42.739 10.0025C42.739 10.6783 42.96 11.2369 43.3947 11.6634C43.8268 12.0873 44.3508 12.3018 44.9518 12.3018C45.5926 12.3018 46.1315 12.0873 46.5512 11.6634C46.7996 11.414 46.9535 11.0649 47.0082 10.6235H44.85V9.69081H47.9345L47.9469 9.7756C47.9693 9.93271 47.9917 10.0948 47.9917 10.2444C47.9917 11.1048 47.7334 11.8005 47.2218 12.3143C46.6406 12.9227 45.8807 13.232 44.9618 13.232ZM80.6276 13.0998H79.6764L76.7632 8.41899L76.7881 9.26188V13.0973H75.8369V6.90029H76.9222L76.952 6.94767L79.6913 11.3566L79.6665 10.5162V6.90029H80.6276V13.0998ZM64.6387 13.0998H63.6751V7.83296H62.0037V6.90029H66.3076V7.83296H64.6362V13.0998H64.6387ZM61.2189 13.0998H60.2578V6.90029H61.2189V13.0998ZM55.8172 13.0998H54.8561V7.83296H53.1847V6.90029H57.4886V7.83296H55.8172V13.0998ZM52.5762 13.0898H48.8907V6.90029H52.5762V7.83296H49.8543V9.5337H52.3105V10.4564H49.8543V12.1571H52.5762V13.0898ZM70.2291 11.6509C70.6587 12.0823 71.1803 12.2993 71.7863 12.2993C72.4096 12.2993 72.9187 12.0873 73.3434 11.6509C73.7656 11.227 73.9792 10.6709 73.9792 10C73.9792 9.32922 73.7656 8.77061 73.3459 8.34917C72.9163 7.91774 72.3922 7.70079 71.7887 7.70079C71.1654 7.70079 70.6563 7.91276 70.2341 8.34917C69.8119 8.77311 69.5983 9.32922 69.5983 10C69.5983 10.6709 69.8094 11.2295 70.2291 11.6509Z" fill="white"/>
<path fill-rule="evenodd" clip-rule="evenodd" d="M68.5205 21.7554C66.1736 21.7554 64.2712 23.5434 64.2712 26.0098C64.2712 28.4537 66.186 30.2641 68.5205 30.2641C70.8675 30.2641 72.7699 28.4636 72.7699 26.0098C72.7699 23.5434 70.8675 21.7554 68.5205 21.7554ZM68.5205 28.5784C67.2365 28.5784 66.1314 27.511 66.1314 25.9998C66.1314 24.4661 67.239 23.4213 68.5205 23.4213C69.8045 23.4213 70.9097 24.4661 70.9097 25.9998C70.9122 27.521 69.8045 28.5784 68.5205 28.5784ZM59.2495 21.7554C56.9025 21.7554 55.0002 23.5434 55.0002 26.0098C55.0002 28.4537 56.915 30.2641 59.2495 30.2641C61.5964 30.2641 63.4988 28.4636 63.4988 26.0098C63.4988 23.5434 61.5939 21.7554 59.2495 21.7554ZM59.2495 28.5784C57.9655 28.5784 56.8603 27.511 56.8603 25.9998C56.8603 24.4661 57.968 23.4213 59.2495 23.4213C60.5335 23.4213 61.6387 24.4661 61.6387 25.9998C61.6387 27.521 60.5335 28.5784 59.2495 28.5784ZM48.2176 23.0547V24.8552H52.5216C52.39 25.8651 52.0572 26.6108 51.548 27.122C50.9172 27.7554 49.9437 28.4437 48.2275 28.4437C45.5826 28.4437 43.5138 26.2991 43.5138 23.6432C43.5138 20.9873 45.5826 18.8427 48.2275 18.8427C49.6556 18.8427 50.6962 19.4088 51.4686 20.132L52.7401 18.8552C51.6672 17.8227 50.2392 17.0322 48.2375 17.0322C44.609 17.0322 41.5642 19.9998 41.5642 23.6332C41.5642 27.2766 44.6065 30.2342 48.2375 30.2342C50.197 30.2342 51.6672 29.5908 52.8295 28.3789C54.0142 27.1893 54.3892 25.511 54.3892 24.1569C54.3892 23.7355 54.3569 23.3564 54.2899 23.0347H48.2151C48.2176 23.0322 48.2176 23.0547 48.2176 23.0547ZM93.341 24.4562C92.9859 23.5011 91.913 21.7454 89.7126 21.7454C87.532 21.7454 85.719 23.4686 85.719 25.9998C85.719 28.3888 87.5121 30.2542 89.9237 30.2542C91.8608 30.2542 92.9884 29.0646 93.4528 28.3664L92.0148 27.3988C91.538 28.1095 90.8749 28.5759 89.9336 28.5759C88.9824 28.5759 88.3168 28.142 87.8747 27.2866L93.5397 24.93C93.5397 24.9325 93.341 24.4562 93.341 24.4562ZM87.5643 25.8776C87.5196 24.2342 88.8359 23.3988 89.7771 23.3988C90.5197 23.3988 91.1381 23.7654 91.3492 24.2991L87.5643 25.8776ZM82.9623 29.9998H84.8225V17.5011H82.9623V29.9998ZM79.9076 22.7006H79.8405C79.4208 22.1993 78.6236 21.7454 77.6053 21.7454C75.4918 21.7454 73.5447 23.6133 73.5447 26.0123C73.5447 28.4013 75.4819 30.2467 77.6053 30.2467C78.6111 30.2467 79.4208 29.7903 79.8405 29.2791H79.9076V29.8901C79.9076 31.5135 79.0433 32.3888 77.65 32.3888C76.5101 32.3888 75.8023 31.5659 75.5142 30.8776L73.8974 31.5559C74.3618 32.6781 75.6011 34.0671 77.6475 34.0671C79.8281 34.0671 81.6758 32.7779 81.6758 29.6332V21.9998H79.9175V22.7006C79.92 22.7006 79.9076 22.7006 79.9076 22.7006ZM77.7717 28.5784C76.4877 28.5784 75.4148 27.5011 75.4148 26.0123C75.4148 24.511 76.4877 23.4237 77.7717 23.4237C79.0433 23.4237 80.0293 24.5235 80.0293 26.0123C80.0417 27.5011 79.0458 28.5784 77.7717 28.5784ZM102.051 17.5011H97.6028V29.9998H99.4629V25.2666H102.053C104.112 25.2666 106.136 23.7679 106.136 21.3888C106.136 19.0098 104.12 17.5011 102.051 17.5011ZM102.105 23.521H99.4605V19.2317H102.105C103.499 19.2317 104.286 20.3863 104.286 21.3764C104.286 22.3564 103.489 23.521 102.105 23.521ZM113.592 21.733C112.241 21.733 110.847 22.334 110.271 23.6432L111.92 24.3315C112.276 23.6432 112.926 23.4088 113.614 23.4088C114.578 23.4088 115.551 23.9873 115.574 25.0198V25.1519C115.241 24.9624 114.511 24.6731 113.636 24.6731C111.856 24.6731 110.05 25.6507 110.05 27.4836C110.05 29.1619 111.511 30.2392 113.137 30.2392C114.387 30.2392 115.074 29.6731 115.504 29.0173H115.571V29.9848H117.364V25.1968C117.364 22.9674 115.715 21.733 113.592 21.733ZM113.358 28.5784C112.75 28.5784 111.898 28.2791 111.898 27.511C111.898 26.5434 112.961 26.1769 113.867 26.1769C114.687 26.1769 115.074 26.3539 115.561 26.5983C115.427 27.7205 114.483 28.5684 113.358 28.5784ZM123.906 21.9998L121.77 27.4213H121.703L119.49 21.9998H117.488L120.809 29.5784L118.916 33.7903H120.854L125.962 21.9998H123.906ZM107.162 29.9998H109.022V17.5011H107.162V29.9998Z" fill="white"/>
<path fill-rule="evenodd" clip-rule="evenodd" d="M11.0591 7.53364C10.771 7.84536 10.6046 8.32167 10.6046 8.94511V31.0573C10.6046 31.6808 10.771 32.1571 11.069 32.4563L11.146 32.5237L23.4842 20.1346V19.8578L11.1361 7.46631L11.0591 7.53364Z" fill="url(#paint0_linear_3510_38333)"/>
<path fill-rule="evenodd" clip-rule="evenodd" d="M27.5894 24.2768L23.4741 20.1446V19.8553L27.5894 15.7231L27.6788 15.778L32.5465 18.5561C33.9398 19.3441 33.9398 20.6458 32.5465 21.4438L27.6788 24.2219L27.5894 24.2768Z" fill="url(#paint1_linear_3510_38333)"/>
<path fill-rule="evenodd" clip-rule="evenodd" d="M27.6789 24.2219L23.4743 20L11.0591 32.4663C11.5136 32.9551 12.276 33.01 13.1279 32.5337L27.6789 24.2219Z" fill="url(#paint2_linear_3510_38333)"/>
<path fill-rule="evenodd" clip-rule="evenodd" d="M27.6789 15.7779L13.1279 7.47869C12.276 6.98992 11.5111 7.05725 11.0591 7.54603L23.4743 19.9999L27.6789 15.7779Z" fill="url(#paint3_linear_3510_38333)"/>
<path opacity="0.2" fill-rule="evenodd" clip-rule="evenodd" d="M27.5895 24.1323L13.1378 32.3767C12.3306 32.843 11.6104 32.8106 11.146 32.3867L11.069 32.464L11.146 32.5313C11.6104 32.9527 12.3306 32.9877 13.1378 32.5213L27.6889 24.2221L27.5895 24.1323Z" fill="black"/>
<path opacity="0.12" fill-rule="evenodd" clip-rule="evenodd" d="M32.5466 21.2993L27.577 24.1322L27.6664 24.2219L32.5342 21.4439C33.232 21.0449 33.5748 20.5212 33.5748 20C33.5325 20.4788 33.1774 20.9327 32.5466 21.2993Z" fill="black"/>
<path opacity="0.25" fill-rule="evenodd" clip-rule="evenodd" d="M13.1279 7.62329L32.5466 18.7006C33.1775 19.0572 33.5326 19.5235 33.5872 19.9999C33.5872 19.4787 33.2445 18.955 32.5466 18.556L13.1279 7.47866C11.7346 6.67816 10.6046 7.34649 10.6046 8.94499V9.08963C10.6046 7.48863 11.7346 6.83277 13.1279 7.62329Z" fill="white"/>
</g>
<defs>
<linearGradient id="paint0_linear_3510_38333" x1="22.3775" y1="8.70654" x2="2.60311" y2="13.9538" gradientUnits="userSpaceOnUse">
<stop stop-color="#00A0FF"/>
<stop offset="0.00657" stop-color="#00A1FF"/>
<stop offset="0.2601" stop-color="#00BEFF"/>
<stop offset="0.5122" stop-color="#00D2FF"/>
<stop offset="0.7604" stop-color="#00DFFF"/>
<stop offset="1" stop-color="#00E3FF"/>
</linearGradient>
<linearGradient id="paint1_linear_3510_38333" x1="34.3635" y1="20" x2="10.2657" y2="20" gradientUnits="userSpaceOnUse">
<stop stop-color="#FFE000"/>
<stop offset="0.4087" stop-color="#FFBD00"/>
<stop offset="0.7754" stop-color="#FFA500"/>
<stop offset="1" stop-color="#FF9C00"/>
</linearGradient>
<linearGradient id="paint2_linear_3510_38333" x1="25.3926" y1="22.2973" x2="9.42982" y2="49.0538" gradientUnits="userSpaceOnUse">
<stop stop-color="#FF3A44"/>
<stop offset="1" stop-color="#C31162"/>
</linearGradient>
<linearGradient id="paint3_linear_3510_38333" x1="7.9328" y1="0.178683" x2="15.0545" y2="12.1286" gradientUnits="userSpaceOnUse">
<stop stop-color="#32A071"/>
<stop offset="0.0685" stop-color="#2DA771"/>
<stop offset="0.4762" stop-color="#15CF74"/>
<stop offset="0.8009" stop-color="#06E775"/>
<stop offset="1" stop-color="#00F076"/>
</linearGradient>
<clipPath id="clip0_3510_38333">
<rect width="135" height="40" fill="white" transform="translate(0.667969)"/>
</clipPath>
</defs>
</svg>
