<svg width="24" height="24" viewBox="0 0 24 24" fill="none" xmlns="http://www.w3.org/2000/svg">
<path d="M20.9712 8C21 8.47142 21 9.05259 21 9.8V14.2C21 15.8802 21 16.7202 20.673 17.362C20.3854 17.9265 19.9265 18.3854 19.362 18.673C18.7202 19 17.8802 19 16.2 19H7.8C6.11984 19 5.27976 19 4.63803 18.673C4.07354 18.3854 3.6146 17.9265 3.32698 17.362C3 16.7202 3 15.8802 3 14.2V9.8C3 9.05259 3 8.47142 3.02878 8M20.9712 8C20.9353 7.41168 20.8545 6.99429 20.673 6.63803C20.3854 6.07354 19.9265 5.6146 19.362 5.32698C18.7202 5 17.8802 5 16.2 5H7.8C6.11984 5 5.27976 5 4.63803 5.32698C4.07354 5.6146 3.6146 6.07354 3.32698 6.63803C3.14546 6.99429 3.06471 7.41168 3.02878 8M20.9712 8L14.9469 12.708C13.8929 13.5277 13.366 13.9376 12.784 14.0951C12.2706 14.2342 11.7294 14.2342 11.216 14.0951C10.634 13.9376 10.1071 13.5277 9.05309 12.708L3.02878 8" stroke="#6E7883" stroke-width="2" stroke-linecap="round" stroke-linejoin="round"/>
</svg>
