<svg width="32" height="32" viewBox="0 0 32 32" fill="none" xmlns="http://www.w3.org/2000/svg">
<path d="M16 2.6665C8.66663 2.6665 2.66663 8.65317 2.66663 16.0265C2.66663 22.6932 7.54663 28.2265 13.92 29.2265V19.8932H10.5333V16.0265H13.92V13.0798C13.92 9.73317 15.9066 7.89317 18.96 7.89317C20.4133 7.89317 21.9333 8.1465 21.9333 8.1465V11.4398H20.2533C18.6 11.4398 18.08 12.4665 18.08 13.5198V16.0265H21.7866L21.1866 19.8932H18.08V29.2265C21.2219 28.7303 24.0829 27.1272 26.1465 24.7066C28.2102 22.286 29.3404 19.2074 29.3333 16.0265C29.3333 8.65317 23.3333 2.6665 16 2.6665Z" fill="#B4B9BF"/>
</svg>
