<svg width="32" height="32" viewBox="0 0 32 32" fill="none" xmlns="http://www.w3.org/2000/svg">
<path fill-rule="evenodd" clip-rule="evenodd" d="M10.4 2.6665H21.6C25.8666 2.6665 29.3333 6.13317 29.3333 10.3998V21.5998C29.3333 25.8708 25.871 29.3332 21.6 29.3332H10.4C6.13329 29.3332 2.66663 25.8665 2.66663 21.5998V10.3998C2.66663 6.12884 6.12896 2.6665 10.4 2.6665ZM10.1333 5.33317C7.48233 5.33317 5.33329 7.4822 5.33329 10.1332V21.8665C5.33329 24.5198 7.47996 26.6665 10.1333 26.6665H21.8666C24.5176 26.6665 26.6666 24.5175 26.6666 21.8665V10.1332C26.6666 7.47984 24.52 5.33317 21.8666 5.33317H10.1333ZM23 7.33317C23.9204 7.33317 24.6666 8.07936 24.6666 8.99984C24.6666 9.92031 23.9204 10.6665 23 10.6665C22.0795 10.6665 21.3333 9.92031 21.3333 8.99984C21.3333 8.07936 22.0795 7.33317 23 7.33317ZM16 9.33317C19.6819 9.33317 22.6666 12.3179 22.6666 15.9998C22.6666 19.6817 19.6819 22.6665 16 22.6665C12.3181 22.6665 9.33329 19.6817 9.33329 15.9998C9.33329 12.3179 12.3181 9.33317 16 9.33317ZM16 11.9998C13.7908 11.9998 12 13.7907 12 15.9998C12 18.209 13.7908 19.9998 16 19.9998C18.2091 19.9998 20 18.209 20 15.9998C20 13.7907 18.2091 11.9998 16 11.9998Z" fill="#B4B9BF"/>
</svg>
